<svg width="1920" height="192" viewBox="0 0 1920 192" fill="none" xmlns="http://www.w3.org/2000/svg">
<path d="M-191 192H2111V10.5745C2111 4.47371 2105.58 -0.205276 2099.55 0.680496L1899.83 29.987C1851.43 37.0903 1802.25 37.1775 1753.82 30.2461L1590.02 6.80222C1553.78 1.61588 1517.09 0.353928 1480.58 3.03827L1005.18 37.9927C980.687 39.7935 956.096 39.8194 931.599 38.07L429.641 2.22366C399.606 0.0787964 369.44 0.603302 339.498 3.79103L152.588 23.6902C117.06 27.4727 81.2325 27.5038 45.698 23.7832L-179.959 0.156082C-185.861 -0.461945 -191 4.16692 -191 10.1017V192Z" fill="#FDC51A"/>
</svg>
