<svg width="1920" height="161" viewBox="0 0 1920 161" fill="none" xmlns="http://www.w3.org/2000/svg">
<path d="M0 0H1920V150.415C1920 156.519 1914.58 161.199 1908.54 160.307L1756.44 137.846C1707.74 130.653 1658.25 130.565 1609.52 137.584L1494.85 154.099C1458.39 159.351 1421.47 160.629 1384.73 157.91L1004.02 129.739C979.373 127.916 954.625 127.889 929.973 129.661L525.427 158.735C495.203 160.907 464.845 160.376 434.715 157.148L295.777 142.262C260.026 138.431 223.97 138.4 188.213 142.168L11.0479 160.836C5.14317 161.458 0 156.828 0 150.891V0Z" fill="#FDC51A"/>
</svg>
